<svg id="my-svg" width="100%" xmlns="http://www.w3.org/2000/svg" xmlns:xlink="http://www.w3.org/1999/xlink" style="max-width: 1206.89px; background-color: transparent;" viewBox="-8 -8 1206.88671875 522.5149230957031" role="graphics-document document" aria-roledescription="flowchart-v2"><style>#my-svg{font-family:"trebuchet ms",verdana,arial,sans-serif;font-size:16px;fill:#000000;}#my-svg .error-icon{fill:#552222;}#my-svg .error-text{fill:#552222;stroke:#552222;}#my-svg .edge-thickness-normal{stroke-width:2px;}#my-svg .edge-thickness-thick{stroke-width:3.5px;}#my-svg .edge-pattern-solid{stroke-dasharray:0;}#my-svg .edge-pattern-dashed{stroke-dasharray:3;}#my-svg .edge-pattern-dotted{stroke-dasharray:2;}#my-svg .marker{fill:#666;stroke:#666;}#my-svg .marker.cross{stroke:#666;}#my-svg svg{font-family:"trebuchet ms",verdana,arial,sans-serif;font-size:16px;}#my-svg .label{font-family:"trebuchet ms",verdana,arial,sans-serif;color:#000000;}#my-svg .cluster-label text{fill:#333;}#my-svg .cluster-label span,#my-svg p{color:#333;}#my-svg .label text,#my-svg span,#my-svg p{fill:#000000;color:#000000;}#my-svg .node rect,#my-svg .node circle,#my-svg .node ellipse,#my-svg .node polygon,#my-svg .node path{fill:#eee;stroke:#999;stroke-width:1px;}#my-svg .flowchart-label text{text-anchor:middle;}#my-svg .node .katex path{fill:#000;stroke:#000;stroke-width:1px;}#my-svg .node .label{text-align:center;}#my-svg .node.clickable{cursor:pointer;}#my-svg .arrowheadPath{fill:#333333;}#my-svg .edgePath .path{stroke:#666;stroke-width:2.0px;}#my-svg .flowchart-link{stroke:#666;fill:none;}#my-svg .edgeLabel{background-color:white;text-align:center;}#my-svg .edgeLabel rect{opacity:0.5;background-color:white;fill:white;}#my-svg .labelBkg{background-color:rgba(255, 255, 255, 0.5);}#my-svg .cluster rect{fill:hsl(0, 0%, 98.9215686275%);stroke:#707070;stroke-width:1px;}#my-svg .cluster text{fill:#333;}#my-svg .cluster span,#my-svg p{color:#333;}#my-svg div.mermaidTooltip{position:absolute;text-align:center;max-width:200px;padding:2px;font-family:"trebuchet ms",verdana,arial,sans-serif;font-size:12px;background:hsl(-160, 0%, 93.3333333333%);border:1px solid #707070;border-radius:2px;pointer-events:none;z-index:100;}#my-svg .flowchartTitleText{text-anchor:middle;font-size:18px;fill:#000000;}#my-svg :root{--mermaid-font-family:"trebuchet ms",verdana,arial,sans-serif;}#my-svg .inst&gt;*{fill:rgb(238, 245, 255)!important;stroke:rgb(59, 111, 179)!important;color:rgb(11, 36, 71)!important;}#my-svg .inst span{fill:rgb(238, 245, 255)!important;stroke:rgb(59, 111, 179)!important;color:rgb(11, 36, 71)!important;}#my-svg .inst tspan{fill:rgb(11, 36, 71)!important;}#my-svg .hot&gt;*{fill:rgb(255, 228, 225)!important;stroke:rgb(168, 50, 50)!important;color:rgb(58, 0, 0)!important;}#my-svg .hot span{fill:rgb(255, 228, 225)!important;stroke:rgb(168, 50, 50)!important;color:rgb(58, 0, 0)!important;}#my-svg .hot tspan{fill:rgb(58, 0, 0)!important;}#my-svg .pl&gt;*{fill:rgb(255, 244, 230)!important;stroke:rgb(193, 98, 10)!important;color:rgb(58, 35, 0)!important;}#my-svg .pl span{fill:rgb(255, 244, 230)!important;stroke:rgb(193, 98, 10)!important;color:rgb(58, 35, 0)!important;}#my-svg .pl tspan{fill:rgb(58, 35, 0)!important;}</style><g><marker id="my-svg_flowchart-pointEnd" class="marker flowchart" viewBox="0 0 10 10" refX="6" refY="5" markerUnits="userSpaceOnUse" markerWidth="12" markerHeight="12" orient="auto"><path d="M 0 0 L 10 5 L 0 10 z" class="arrowMarkerPath" style="stroke-width: 1; stroke-dasharray: 1, 0;"/></marker><marker id="my-svg_flowchart-pointStart" class="marker flowchart" viewBox="0 0 10 10" refX="4.5" refY="5" markerUnits="userSpaceOnUse" markerWidth="12" markerHeight="12" orient="auto"><path d="M 0 5 L 10 10 L 10 0 z" class="arrowMarkerPath" style="stroke-width: 1; stroke-dasharray: 1, 0;"/></marker><marker id="my-svg_flowchart-circleEnd" class="marker flowchart" viewBox="0 0 10 10" refX="11" refY="5" markerUnits="userSpaceOnUse" markerWidth="11" markerHeight="11" orient="auto"><circle cx="5" cy="5" r="5" class="arrowMarkerPath" style="stroke-width: 1; stroke-dasharray: 1, 0;"/></marker><marker id="my-svg_flowchart-circleStart" class="marker flowchart" viewBox="0 0 10 10" refX="-1" refY="5" markerUnits="userSpaceOnUse" markerWidth="11" markerHeight="11" orient="auto"><circle cx="5" cy="5" r="5" class="arrowMarkerPath" style="stroke-width: 1; stroke-dasharray: 1, 0;"/></marker><marker id="my-svg_flowchart-crossEnd" class="marker cross flowchart" viewBox="0 0 11 11" refX="12" refY="5.2" markerUnits="userSpaceOnUse" markerWidth="11" markerHeight="11" orient="auto"><path d="M 1,1 l 9,9 M 10,1 l -9,9" class="arrowMarkerPath" style="stroke-width: 2; stroke-dasharray: 1, 0;"/></marker><marker id="my-svg_flowchart-crossStart" class="marker cross flowchart" viewBox="0 0 11 11" refX="-1" refY="5.2" markerUnits="userSpaceOnUse" markerWidth="11" markerHeight="11" orient="auto"><path d="M 1,1 l 9,9 M 10,1 l -9,9" class="arrowMarkerPath" style="stroke-width: 2; stroke-dasharray: 1, 0;"/></marker><g class="root"><g class="clusters"><g class="cluster default flowchart-label" id="pool"><rect style="" rx="0" ry="0" x="3.56640625" y="236" width="548.396484375" height="270.5149230957031"/><g class="cluster-label" transform="translate(85.7333984375, 236)"><foreignObject width="384.0625" height="18.5"><div xmlns="http://www.w3.org/1999/xhtml" style="display: inline-block; white-space: nowrap;"><span class="nodeLabel"><b>shared host-RAM KV pool</b> (POSIX-SHM, one per node)</span></div></foreignObject></g></g><g class="cluster default flowchart-label" id="instB"><rect style="" rx="0" ry="0" x="591.1015625" y="0" width="599.78515625" height="167.5"/><g class="cluster-label" transform="translate(828.974609375, 0)"><foreignObject width="124.0390625" height="18.5"><div xmlns="http://www.w3.org/1999/xhtml" style="display: inline-block; white-space: nowrap;"><span class="nodeLabel"><b>Spyre instance B</b></span></div></foreignObject></g></g><g class="cluster default flowchart-label" id="instA"><rect style="" rx="0" ry="0" x="0" y="0" width="571.1015625" height="167.5"/><g class="cluster-label" transform="translate(223.66796875, 0)"><foreignObject width="123.765625" height="18.5"><div xmlns="http://www.w3.org/1999/xhtml" style="display: inline-block; white-space: nowrap;"><span class="nodeLabel"><b>Spyre instance A</b></span></div></foreignObject></g></g></g><g class="edgePaths"><path d="M225.809,58.5L225.809,62.667C225.809,66.833,225.809,75.167,225.809,82.617C225.809,90.067,225.809,96.633,225.809,99.917L225.809,103.2" id="L-OA-HA-0" class="edge-thickness-normal edge-pattern-solid flowchart-link LS-OA LE-HA" style="fill:none;" marker-end="url(#my-svg_flowchart-pointEnd)"/><path d="M936.395,58.5L936.395,62.667C936.395,66.833,936.395,75.167,936.395,82.617C936.395,90.067,936.395,96.633,936.395,99.917L936.395,103.2" id="L-OB-HB-0" class="edge-thickness-normal edge-pattern-solid flowchart-link LS-OB LE-HB" style="fill:none;" marker-end="url(#my-svg_flowchart-pointEnd)"/><path d="M225.809,314L225.809,319.708C225.809,325.417,225.809,336.833,228.5,348.315C231.191,359.797,236.573,371.345,239.264,377.118L241.954,382.892" id="L-HM-SLOTS-0" class="edge-thickness-normal edge-pattern-solid flowchart-link LS-HM LE-SLOTS" style="fill:none;"/><path d="M315.823,142.5L337.885,146.667C359.948,150.833,404.073,159.167,468.472,169.042C532.872,178.917,617.548,190.333,659.885,201.75C702.223,213.167,702.223,224.583,720.685,234.352C739.147,244.121,776.071,252.241,794.533,256.301L812.996,260.362" id="L-HA-RAW-0" class="edge-thickness-normal edge-pattern-solid flowchart-link LS-HA LE-RAW" style="fill:none;" marker-end="url(#my-svg_flowchart-pointEnd)"/><path d="M989.656,142.5L1002.711,146.667C1015.765,150.833,1041.874,159.167,1054.928,169.042C1067.982,178.917,1067.982,190.333,1067.982,201.75C1067.982,213.167,1067.982,224.583,1057.946,234.22C1047.909,243.856,1027.836,251.712,1017.799,255.64L1007.763,259.568" id="L-HB-RAW-0" class="edge-thickness-normal edge-pattern-solid flowchart-link LS-HB LE-RAW" style="fill:none;" marker-end="url(#my-svg_flowchart-pointEnd)"/><path d="M718.983,314.145L672.602,319.829C626.22,325.513,533.458,336.882,475.859,349.985C418.26,363.089,395.825,377.929,384.608,385.348L373.391,392.768" id="L-RAW-SLOTS-0" class="edge-thickness-normal edge-pattern-solid flowchart-link LS-RAW LE-SLOTS" style="fill:none;" marker-start="url(#my-svg_flowchart-pointStart)" marker-end="url(#my-svg_flowchart-pointEnd)"/><path d="M205.919,142.5L201.044,146.667C196.169,150.833,186.42,159.167,181.545,169.042C176.67,178.917,176.67,190.333,176.67,201.75C176.67,213.167,176.67,224.583,180.036,233.819C183.402,243.055,190.133,250.11,193.499,253.638L196.865,257.165" id="L-HA-HM-0" class="edge-thickness-normal edge-pattern-dotted flowchart-link LS-HA LE-HM" style="fill:none;stroke-width:2px;stroke-dasharray:3;" marker-end="url(#my-svg_flowchart-pointEnd)"/><path d="M850.428,142.5L829.357,146.667C808.287,150.833,766.146,159.167,696.191,169.042C626.236,178.917,528.465,190.333,479.58,201.75C430.695,213.167,430.695,224.583,414.975,234.243C399.255,243.903,367.816,251.805,352.096,255.757L336.376,259.708" id="L-HB-HM-0" class="edge-thickness-normal edge-pattern-dotted flowchart-link LS-HB LE-HM" style="fill:none;stroke-width:2px;stroke-dasharray:3;" marker-end="url(#my-svg_flowchart-pointEnd)"/></g><g class="edgeLabels"><g class="edgeLabel"><g class="label" transform="translate(0, 0)"><foreignObject width="0" height="0"><div xmlns="http://www.w3.org/1999/xhtml" style="display: inline-block; white-space: nowrap;"><span class="edgeLabel"></span></div></foreignObject></g></g><g class="edgeLabel"><g class="label" transform="translate(0, 0)"><foreignObject width="0" height="0"><div xmlns="http://www.w3.org/1999/xhtml" style="display: inline-block; white-space: nowrap;"><span class="edgeLabel"></span></div></foreignObject></g></g><g class="edgeLabel"><g class="label" transform="translate(0, 0)"><foreignObject width="0" height="0"><div xmlns="http://www.w3.org/1999/xhtml" style="display: inline-block; white-space: nowrap;"><span class="edgeLabel"></span></div></foreignObject></g></g><g class="edgeLabel" transform="translate(702.22265625, 201.75)"><g class="label" transform="translate(-90.8125, -9.25)"><foreignObject width="181.625" height="18.5"><div xmlns="http://www.w3.org/1999/xhtml" style="display: inline-block; white-space: nowrap;"><span class="edgeLabel">D2H offload / H2D reload</span></div></foreignObject></g></g><g class="edgeLabel" transform="translate(1067.982421875, 201.75)"><g class="label" transform="translate(-90.8125, -9.25)"><foreignObject width="181.625" height="18.5"><div xmlns="http://www.w3.org/1999/xhtml" style="display: inline-block; white-space: nowrap;"><span class="edgeLabel">D2H offload / H2D reload</span></div></foreignObject></g></g><g class="edgeLabel" transform="translate(440.6953125, 348.25)"><g class="label" transform="translate(-62.53515625, -9.25)"><foreignObject width="125.0703125" height="18.5"><div xmlns="http://www.w3.org/1999/xhtml" style="display: inline-block; white-space: nowrap;"><span class="edgeLabel">raw DMA into slot</span></div></foreignObject></g></g><g class="edgeLabel" transform="translate(176.669921875, 201.75)"><g class="label" transform="translate(-58.359375, -9.25)"><foreignObject width="116.71875" height="18.5"><div xmlns="http://www.w3.org/1999/xhtml" style="display: inline-block; white-space: nowrap;"><span class="edgeLabel">lookup / publish</span></div></foreignObject></g></g><g class="edgeLabel" transform="translate(430.6953125, 201.75)"><g class="label" transform="translate(-60.62109375, -9.25)"><foreignObject width="121.2421875" height="18.5"><div xmlns="http://www.w3.org/1999/xhtml" style="display: inline-block; white-space: nowrap;"><span class="edgeLabel">lookup (peer hit)</span></div></foreignObject></g></g></g><g class="nodes"><g class="node default pl flowchart-label" id="flowchart-HM-9" data-node="true" data-id="HM" transform="translate(225.80859375, 287.5)"><rect class="basic label-container" style="" rx="0" ry="0" x="-187.2421875" y="-26.5" width="374.484375" height="53"/><g class="label" style="" transform="translate(-179.7421875, -19)"><rect/><foreignObject width="359.484375" height="38"><div xmlns="http://www.w3.org/1999/xhtml" style="display: inline-block; white-space: nowrap;"><span class="nodeLabel">hmlib KVBlockStore: block-hash→slot directory,<br />single-writer publish gate, seqlock copy→validate</span></div></foreignObject></g></g><g class="node default pl flowchart-label" id="flowchart-SLOTS-10" data-node="true" data-id="SLOTS" transform="translate(265.29296875, 432.00746154785156)"><path style="" d="M 0,15.671641791044776 a 105,15.671641791044776 0,0,0 210 0 a 105,15.671641791044776 0,0,0 -210 0 l 0,67.67164179104478 a 105,15.671641791044776 0,0,0 210 0 l 0,-67.67164179104478" transform="translate(-105,-49.507462686567166)"/><g class="label" style="" transform="translate(-97.5, -18.5)"><rect/><foreignObject width="195" height="37"><div xmlns="http://www.w3.org/1999/xhtml" style="display: inline-block; white-space: nowrap;"><span class="nodeLabel">slots: raw KV page images<br />host DRAM, DMA-registered</span></div></foreignObject></g></g><g class="node default inst flowchart-label" id="flowchart-OB-4" data-node="true" data-id="OB" transform="translate(936.39453125, 41.75)"><rect class="basic label-container" style="" rx="0" ry="0" x="-179.015625" y="-16.75" width="358.03125" height="33.5"/><g class="label" style="" transform="translate(-171.515625, -9.25)"><rect/><foreignObject width="343.03125" height="18.5"><div xmlns="http://www.w3.org/1999/xhtml" style="display: inline-block; white-space: nowrap;"><span class="nodeLabel">OffloadingConnector + SpyreShmOffloadingSpec</span></div></foreignObject></g></g><g class="node default inst flowchart-label" id="flowchart-HB-5" data-node="true" data-id="HB" transform="translate(936.39453125, 125.5)"><rect class="basic label-container" style="" rx="0" ry="0" x="-190.80859375" y="-17" width="381.6171875" height="34"/><g class="label" style="" transform="translate(-183.30859375, -9.5)"><rect/><foreignObject width="366.6171875" height="19"><div xmlns="http://www.w3.org/1999/xhtml" style="display: inline-block; white-space: nowrap;"><span class="nodeLabel">SpyreShmOffloadingHandlers → SpyreKvDmaCopier</span></div></foreignObject></g></g><g class="node default inst flowchart-label" id="flowchart-OA-0" data-node="true" data-id="OA" transform="translate(225.80859375, 41.75)"><rect class="basic label-container" style="" rx="0" ry="0" x="-179.015625" y="-16.75" width="358.03125" height="33.5"/><g class="label" style="" transform="translate(-171.515625, -9.25)"><rect/><foreignObject width="343.03125" height="18.5"><div xmlns="http://www.w3.org/1999/xhtml" style="display: inline-block; white-space: nowrap;"><span class="nodeLabel">OffloadingConnector + SpyreShmOffloadingSpec</span></div></foreignObject></g></g><g class="node default inst flowchart-label" id="flowchart-HA-1" data-node="true" data-id="HA" transform="translate(225.80859375, 125.5)"><rect class="basic label-container" style="" rx="0" ry="0" x="-190.80859375" y="-17" width="381.6171875" height="34"/><g class="label" style="" transform="translate(-183.30859375, -9.5)"><rect/><foreignObject width="366.6171875" height="19"><div xmlns="http://www.w3.org/1999/xhtml" style="display: inline-block; white-space: nowrap;"><span class="nodeLabel">SpyreShmOffloadingHandlers → SpyreKvDmaCopier</span></div></foreignObject></g></g><g class="node default hot flowchart-label" id="flowchart-RAW-8" data-node="true" data-id="RAW" transform="translate(936.39453125, 287.5)"><rect class="basic label-container" style="" rx="0" ry="0" x="-245.51953125" y="-26" width="491.0390625" height="52"/><g class="label" style="" transform="translate(-238.01953125, -18.5)"><rect/><foreignObject width="476.0390625" height="37"><div xmlns="http://www.w3.org/1999/xhtml" style="display: inline-block; white-space: nowrap;"><span class="nodeLabel"><b>torch_spyre._C.copy_tensor_raw</b> / register_dmable_host_buffer<br />(flex copyRaw + external-pointer pin)</span></div></foreignObject></g></g></g></g></g></svg>