<svg id="my-svg" width="100%" xmlns="http://www.w3.org/2000/svg" xmlns:xlink="http://www.w3.org/1999/xlink" style="max-width: 1236.33px; background-color: transparent;" viewBox="-8 -8 1236.328125 874" role="graphics-document document" aria-roledescription="flowchart-v2"><style>#my-svg{font-family:"trebuchet ms",verdana,arial,sans-serif;font-size:16px;fill:#000000;}#my-svg .error-icon{fill:#552222;}#my-svg .error-text{fill:#552222;stroke:#552222;}#my-svg .edge-thickness-normal{stroke-width:2px;}#my-svg .edge-thickness-thick{stroke-width:3.5px;}#my-svg .edge-pattern-solid{stroke-dasharray:0;}#my-svg .edge-pattern-dashed{stroke-dasharray:3;}#my-svg .edge-pattern-dotted{stroke-dasharray:2;}#my-svg .marker{fill:#666;stroke:#666;}#my-svg .marker.cross{stroke:#666;}#my-svg svg{font-family:"trebuchet ms",verdana,arial,sans-serif;font-size:16px;}#my-svg .label{font-family:"trebuchet ms",verdana,arial,sans-serif;color:#000000;}#my-svg .cluster-label text{fill:#333;}#my-svg .cluster-label span,#my-svg p{color:#333;}#my-svg .label text,#my-svg span,#my-svg p{fill:#000000;color:#000000;}#my-svg .node rect,#my-svg .node circle,#my-svg .node ellipse,#my-svg .node polygon,#my-svg .node path{fill:#eee;stroke:#999;stroke-width:1px;}#my-svg .flowchart-label text{text-anchor:middle;}#my-svg .node .katex path{fill:#000;stroke:#000;stroke-width:1px;}#my-svg .node .label{text-align:center;}#my-svg .node.clickable{cursor:pointer;}#my-svg .arrowheadPath{fill:#333333;}#my-svg .edgePath .path{stroke:#666;stroke-width:2.0px;}#my-svg .flowchart-link{stroke:#666;fill:none;}#my-svg .edgeLabel{background-color:white;text-align:center;}#my-svg .edgeLabel rect{opacity:0.5;background-color:white;fill:white;}#my-svg .labelBkg{background-color:rgba(255, 255, 255, 0.5);}#my-svg .cluster rect{fill:hsl(0, 0%, 98.9215686275%);stroke:#707070;stroke-width:1px;}#my-svg .cluster text{fill:#333;}#my-svg .cluster span,#my-svg p{color:#333;}#my-svg div.mermaidTooltip{position:absolute;text-align:center;max-width:200px;padding:2px;font-family:"trebuchet ms",verdana,arial,sans-serif;font-size:12px;background:hsl(-160, 0%, 93.3333333333%);border:1px solid #707070;border-radius:2px;pointer-events:none;z-index:100;}#my-svg .flowchartTitleText{text-anchor:middle;font-size:18px;fill:#000000;}#my-svg :root{--mermaid-font-family:"trebuchet ms",verdana,arial,sans-serif;}#my-svg .upstream&gt;*{fill:rgb(238, 245, 255)!important;stroke:rgb(59, 111, 179)!important;color:rgb(11, 36, 71)!important;}#my-svg .upstream span{fill:rgb(238, 245, 255)!important;stroke:rgb(59, 111, 179)!important;color:rgb(11, 36, 71)!important;}#my-svg .upstream tspan{fill:rgb(11, 36, 71)!important;}#my-svg .plugin&gt;*{fill:rgb(255, 244, 230)!important;stroke:rgb(193, 98, 10)!important;color:rgb(58, 35, 0)!important;}#my-svg .plugin span{fill:rgb(255, 244, 230)!important;stroke:rgb(193, 98, 10)!important;color:rgb(58, 35, 0)!important;}#my-svg .plugin tspan{fill:rgb(58, 35, 0)!important;}#my-svg .hot&gt;*{fill:rgb(255, 228, 225)!important;stroke:rgb(168, 50, 50)!important;color:rgb(58, 0, 0)!important;}#my-svg .hot span{fill:rgb(255, 228, 225)!important;stroke:rgb(168, 50, 50)!important;color:rgb(58, 0, 0)!important;}#my-svg .hot tspan{fill:rgb(58, 0, 0)!important;}</style><g><marker id="my-svg_flowchart-pointEnd" class="marker flowchart" viewBox="0 0 10 10" refX="6" refY="5" markerUnits="userSpaceOnUse" markerWidth="12" markerHeight="12" orient="auto"><path d="M 0 0 L 10 5 L 0 10 z" class="arrowMarkerPath" style="stroke-width: 1; stroke-dasharray: 1, 0;"/></marker><marker id="my-svg_flowchart-pointStart" class="marker flowchart" viewBox="0 0 10 10" refX="4.5" refY="5" markerUnits="userSpaceOnUse" markerWidth="12" markerHeight="12" orient="auto"><path d="M 0 5 L 10 10 L 10 0 z" class="arrowMarkerPath" style="stroke-width: 1; stroke-dasharray: 1, 0;"/></marker><marker id="my-svg_flowchart-circleEnd" class="marker flowchart" viewBox="0 0 10 10" refX="11" refY="5" markerUnits="userSpaceOnUse" markerWidth="11" markerHeight="11" orient="auto"><circle cx="5" cy="5" r="5" class="arrowMarkerPath" style="stroke-width: 1; stroke-dasharray: 1, 0;"/></marker><marker id="my-svg_flowchart-circleStart" class="marker flowchart" viewBox="0 0 10 10" refX="-1" refY="5" markerUnits="userSpaceOnUse" markerWidth="11" markerHeight="11" orient="auto"><circle cx="5" cy="5" r="5" class="arrowMarkerPath" style="stroke-width: 1; stroke-dasharray: 1, 0;"/></marker><marker id="my-svg_flowchart-crossEnd" class="marker cross flowchart" viewBox="0 0 11 11" refX="12" refY="5.2" markerUnits="userSpaceOnUse" markerWidth="11" markerHeight="11" orient="auto"><path d="M 1,1 l 9,9 M 10,1 l -9,9" class="arrowMarkerPath" style="stroke-width: 2; stroke-dasharray: 1, 0;"/></marker><marker id="my-svg_flowchart-crossStart" class="marker cross flowchart" viewBox="0 0 11 11" refX="-1" refY="5.2" markerUnits="userSpaceOnUse" markerWidth="11" markerHeight="11" orient="auto"><path d="M 1,1 l 9,9 M 10,1 l -9,9" class="arrowMarkerPath" style="stroke-width: 2; stroke-dasharray: 1, 0;"/></marker><g class="root"><g class="clusters"><g class="cluster default flowchart-label" id="spyre"><rect style="" rx="0" ry="0" x="0" y="272.5" width="1220.328125" height="585.5"/><g class="cluster-label" transform="translate(468.4765625, 272.5)"><foreignObject width="283.375" height="18.5"><div xmlns="http://www.w3.org/1999/xhtml" style="display: inline-block; white-space: nowrap;"><span class="nodeLabel"><b>spyre-inference</b> (new code — this RFC)</span></div></foreignObject></g></g><g class="cluster default flowchart-label" id="vllm"><rect style="" rx="0" ry="0" x="220.298828125" y="0" width="907.419921875" height="204"/><g class="cluster-label" transform="translate(567.1767578125, 0)"><foreignObject width="213.6640625" height="18.5"><div xmlns="http://www.w3.org/1999/xhtml" style="display: inline-block; white-space: nowrap;"><span class="nodeLabel"><b>vllm</b> (upstream — unchanged)</span></div></foreignObject></g></g></g><g class="edgePaths"><path d="M741.963,54.584L782.361,60.945C822.758,67.306,903.554,80.028,943.952,92.756C984.35,105.483,984.35,118.217,984.35,124.583L984.35,130.95" id="L-OC-OCW-0" class="edge-thickness-normal edge-pattern-solid flowchart-link LS-OC LE-OCW" style="fill:none;" marker-end="url(#my-svg_flowchart-pointEnd)"/><path d="M578.955,57.34L548.101,63.242C517.247,69.143,455.538,80.947,424.684,91.673C393.83,102.4,393.83,112.05,393.83,116.875L393.83,121.7" id="L-OC-Factory-0" class="edge-thickness-normal edge-pattern-solid flowchart-link LS-OC LE-Factory" style="fill:none;" marker-end="url(#my-svg_flowchart-pointEnd)"/><path d="M305.658,349.5L286.299,355.208C266.941,360.917,228.224,372.333,208.866,382.867C189.508,393.4,189.508,403.05,189.508,407.875L189.508,412.7" id="L-Spec-Mgr-0" class="edge-thickness-normal edge-pattern-solid flowchart-link LS-Spec LE-Mgr" style="fill:none;" marker-end="url(#my-svg_flowchart-pointEnd)"/><path d="M482.002,349.5L501.361,355.208C520.719,360.917,559.436,372.333,578.794,382.867C598.152,393.4,598.152,403.05,598.152,407.875L598.152,412.7" id="L-Spec-Handlers-0" class="edge-thickness-normal edge-pattern-solid flowchart-link LS-Spec LE-Handlers" style="fill:none;" marker-end="url(#my-svg_flowchart-pointEnd)"/><path d="M598.152,470.5L598.152,474.667C598.152,478.833,598.152,487.167,607.061,495.152C615.971,503.137,633.789,510.775,642.698,514.593L651.607,518.412" id="L-Handlers-D2H-0" class="edge-thickness-normal edge-pattern-solid flowchart-link LS-Handlers LE-D2H" style="fill:none;" marker-end="url(#my-svg_flowchart-pointEnd)"/><path d="M739.84,470.5L762.33,474.667C784.821,478.833,829.801,487.167,862.607,495.191C895.413,503.215,916.044,510.929,926.36,514.786L936.676,518.644" id="L-Handlers-H2D-0" class="edge-thickness-normal edge-pattern-solid flowchart-link LS-Handlers LE-H2D" style="fill:none;" marker-end="url(#my-svg_flowchart-pointEnd)"/><path d="M717.721,573L717.721,577.167C717.721,581.333,717.721,589.667,725.739,597.623C733.757,605.578,749.792,613.157,757.81,616.946L765.828,620.735" id="L-D2H-Copier-0" class="edge-thickness-normal edge-pattern-solid flowchart-link LS-D2H LE-Copier" style="fill:none;" marker-end="url(#my-svg_flowchart-pointEnd)"/><path d="M1011.842,573L1011.842,577.167C1011.842,581.333,1011.842,589.667,1003.824,597.623C995.806,605.578,979.77,613.157,971.752,616.946L963.734,620.735" id="L-H2D-Copier-0" class="edge-thickness-normal edge-pattern-solid flowchart-link LS-H2D LE-Copier" style="fill:none;" marker-end="url(#my-svg_flowchart-pointEnd)"/><path d="M864.781,712L864.781,716.167C864.781,720.333,864.781,728.667,864.781,736.117C864.781,743.567,864.781,750.133,864.781,753.417L864.781,756.7" id="L-Copier-Backend-0" class="edge-thickness-normal edge-pattern-solid flowchart-link LS-Copier LE-Backend" style="fill:none;" marker-end="url(#my-svg_flowchart-pointEnd)"/><path d="M393.83,179L393.83,183.167C393.83,187.333,393.83,195.667,393.83,205.542C393.83,215.417,393.83,226.833,393.83,238.25C393.83,249.667,393.83,261.083,393.83,270.075C393.83,279.067,393.83,285.633,393.83,288.917L393.83,292.2" id="L-Factory-Spec-0" class="edge-thickness-normal edge-pattern-dotted flowchart-link LS-Factory LE-Spec" style="fill:none;stroke-width:2px;stroke-dasharray:3;" marker-end="url(#my-svg_flowchart-pointEnd)"/><path d="M936.05,169.75L919.59,175.458C903.13,181.167,870.209,192.583,853.749,204C837.289,215.417,837.289,226.833,837.289,238.25C837.289,249.667,837.289,261.083,837.289,275.292C837.289,289.5,837.289,306.5,837.289,325.042C837.289,343.583,837.289,363.667,837.289,383.792C837.289,403.917,837.289,424.083,837.289,442.708C837.289,461.333,837.289,478.417,828.38,490.777C819.471,503.137,801.653,510.775,792.744,514.593L783.834,518.412" id="L-OCW-D2H-0" class="edge-thickness-normal edge-pattern-solid flowchart-link LS-OCW LE-D2H" style="fill:none;" marker-end="url(#my-svg_flowchart-pointEnd)"/><path d="M1004.856,169.75L1011.845,175.458C1018.833,181.167,1032.81,192.583,1039.799,204C1046.787,215.417,1046.787,226.833,1046.787,238.25C1046.787,249.667,1046.787,261.083,1046.787,275.292C1046.787,289.5,1046.787,306.5,1046.787,325.042C1046.787,343.583,1046.787,363.667,1046.787,383.792C1046.787,403.917,1046.787,424.083,1046.787,442.708C1046.787,461.333,1046.787,478.417,1044.444,490.395C1042.1,502.374,1037.413,509.247,1035.07,512.684L1032.726,516.121" id="L-OCW-H2D-0" class="edge-thickness-normal edge-pattern-solid flowchart-link LS-OCW LE-H2D" style="fill:none;" marker-end="url(#my-svg_flowchart-pointEnd)"/></g><g class="edgeLabels"><g class="edgeLabel" transform="translate(984.349609375, 92.75)"><g class="label" transform="translate(-68.09375, -9.25)"><foreignObject width="136.1875" height="18.5"><div xmlns="http://www.w3.org/1999/xhtml" style="display: inline-block; white-space: nowrap;"><span class="edgeLabel">register_kv_caches</span></div></foreignObject></g></g><g class="edgeLabel" transform="translate(393.830078125, 92.75)"><g class="label" transform="translate(-92.95703125, -9.25)"><foreignObject width="185.9140625" height="18.5"><div xmlns="http://www.w3.org/1999/xhtml" style="display: inline-block; white-space: nowrap;"><span class="edgeLabel">get_handlers (via factory)</span></div></foreignObject></g></g><g class="edgeLabel"><g class="label" transform="translate(0, 0)"><foreignObject width="0" height="0"><div xmlns="http://www.w3.org/1999/xhtml" style="display: inline-block; white-space: nowrap;"><span class="edgeLabel"></span></div></foreignObject></g></g><g class="edgeLabel"><g class="label" transform="translate(0, 0)"><foreignObject width="0" height="0"><div xmlns="http://www.w3.org/1999/xhtml" style="display: inline-block; white-space: nowrap;"><span class="edgeLabel"></span></div></foreignObject></g></g><g class="edgeLabel"><g class="label" transform="translate(0, 0)"><foreignObject width="0" height="0"><div xmlns="http://www.w3.org/1999/xhtml" style="display: inline-block; white-space: nowrap;"><span class="edgeLabel"></span></div></foreignObject></g></g><g class="edgeLabel"><g class="label" transform="translate(0, 0)"><foreignObject width="0" height="0"><div xmlns="http://www.w3.org/1999/xhtml" style="display: inline-block; white-space: nowrap;"><span class="edgeLabel"></span></div></foreignObject></g></g><g class="edgeLabel"><g class="label" transform="translate(0, 0)"><foreignObject width="0" height="0"><div xmlns="http://www.w3.org/1999/xhtml" style="display: inline-block; white-space: nowrap;"><span class="edgeLabel"></span></div></foreignObject></g></g><g class="edgeLabel"><g class="label" transform="translate(0, 0)"><foreignObject width="0" height="0"><div xmlns="http://www.w3.org/1999/xhtml" style="display: inline-block; white-space: nowrap;"><span class="edgeLabel"></span></div></foreignObject></g></g><g class="edgeLabel"><g class="label" transform="translate(0, 0)"><foreignObject width="0" height="0"><div xmlns="http://www.w3.org/1999/xhtml" style="display: inline-block; white-space: nowrap;"><span class="edgeLabel"></span></div></foreignObject></g></g><g class="edgeLabel" transform="translate(393.830078125, 238.25)"><g class="label" transform="translate(-38.7578125, -9.25)"><foreignObject width="77.515625" height="18.5"><div xmlns="http://www.w3.org/1999/xhtml" style="display: inline-block; white-space: nowrap;"><span class="edgeLabel">resolves to</span></div></foreignObject></g></g><g class="edgeLabel" transform="translate(837.2890625, 383.75)"><g class="label" transform="translate(-52.4375, -9.25)"><foreignObject width="104.875" height="18.5"><div xmlns="http://www.w3.org/1999/xhtml" style="display: inline-block; white-space: nowrap;"><span class="edgeLabel">transfer_async</span></div></foreignObject></g></g><g class="edgeLabel" transform="translate(1046.787109375, 383.75)"><g class="label" transform="translate(-52.4375, -9.25)"><foreignObject width="104.875" height="18.5"><div xmlns="http://www.w3.org/1999/xhtml" style="display: inline-block; white-space: nowrap;"><span class="edgeLabel">transfer_async</span></div></foreignObject></g></g></g><g class="nodes"><g class="node default plugin flowchart-label" id="flowchart-Spec-7" data-node="true" data-id="Spec" transform="translate(393.830078125, 323.5)"><rect class="basic label-container" style="" rx="0" ry="0" x="-120.80078125" y="-26" width="241.6015625" height="52"/><g class="label" style="" transform="translate(-113.30078125, -18.5)"><rect/><foreignObject width="226.6015625" height="37"><div xmlns="http://www.w3.org/1999/xhtml" style="display: inline-block; white-space: nowrap;"><span class="nodeLabel">SpyreOffloadingSpec<br />(subclasses CPUOffloadingSpec)</span></div></foreignObject></g></g><g class="node default plugin flowchart-label" id="flowchart-Mgr-8" data-node="true" data-id="Mgr" transform="translate(189.5078125, 444.25)"><rect class="basic label-container" style="" rx="0" ry="0" x="-154.5078125" y="-26.25" width="309.015625" height="52.5"/><g class="label" style="" transform="translate(-147.0078125, -18.75)"><rect/><foreignObject width="294.015625" height="37.5"><div xmlns="http://www.w3.org/1999/xhtml" style="display: inline-block; white-space: nowrap;"><span class="nodeLabel">get_manager() → CPUOffloadingManager<br /><i>reused verbatim from upstream</i></span></div></foreignObject></g></g><g class="node default plugin flowchart-label" id="flowchart-Handlers-9" data-node="true" data-id="Handlers" transform="translate(598.15234375, 444.25)"><rect class="basic label-container" style="" rx="0" ry="0" x="-204.13671875" y="-26.25" width="408.2734375" height="52.5"/><g class="label" style="" transform="translate(-196.63671875, -18.75)"><rect/><foreignObject width="393.2734375" height="37.5"><div xmlns="http://www.w3.org/1999/xhtml" style="display: inline-block; white-space: nowrap;"><span class="nodeLabel">create_handlers() → SpyreCpuOffloadingHandlers<br /><i>overrides the hook; get_handlers drops the CUDA gate</i></span></div></foreignObject></g></g><g class="node default plugin flowchart-label" id="flowchart-D2H-10" data-node="true" data-id="D2H" transform="translate(717.720703125, 546.75)"><rect class="basic label-container" style="" rx="0" ry="0" x="-123.4921875" y="-26.25" width="246.984375" height="52.5"/><g class="label" style="" transform="translate(-115.9921875, -18.75)"><rect/><foreignObject width="231.984375" height="37.5"><div xmlns="http://www.w3.org/1999/xhtml" style="display: inline-block; white-space: nowrap;"><span class="nodeLabel">gpu_to_cpu_handler<br />(store: Spyre → host RAM block)</span></div></foreignObject></g></g><g class="node default plugin flowchart-label" id="flowchart-H2D-11" data-node="true" data-id="H2D" transform="translate(1011.841796875, 546.75)"><rect class="basic label-container" style="" rx="0" ry="0" x="-120.62890625" y="-26.25" width="241.2578125" height="52.5"/><g class="label" style="" transform="translate(-113.12890625, -18.75)"><rect/><foreignObject width="226.2578125" height="37.5"><div xmlns="http://www.w3.org/1999/xhtml" style="display: inline-block; white-space: nowrap;"><span class="nodeLabel">cpu_to_gpu_handler<br />(load: host RAM block → Spyre)</span></div></foreignObject></g></g><g class="node default hot flowchart-label" id="flowchart-Copier-12" data-node="true" data-id="Copier" transform="translate(864.78125, 667.5)"><rect class="basic label-container" style="" rx="0" ry="0" x="-183.8515625" y="-44.5" width="367.703125" height="89"/><g class="label" style="" transform="translate(-176.3515625, -37)"><rect/><foreignObject width="352.703125" height="74"><div xmlns="http://www.w3.org/1999/xhtml" style="display: inline-block; white-space: nowrap;"><span class="nodeLabel"><b>SpyreKvDmaCopier</b><br />thin wrapper around torch_spyre._C.copy_tensor<br />.copy_d2h(spyre_tensor, host_tensor)<br />.copy_h2d(host_tensor, spyre_tensor)</span></div></foreignObject></g></g><g class="node default hot flowchart-label" id="flowchart-Backend-13" data-node="true" data-id="Backend" transform="translate(864.78125, 797.5)"><rect class="basic label-container" style="" rx="0" ry="0" x="-226.34375" y="-35.5" width="452.6875" height="71"/><g class="label" style="" transform="translate(-218.84375, -28)"><rect/><foreignObject width="437.6875" height="56"><div xmlns="http://www.w3.org/1999/xhtml" style="display: inline-block; white-space: nowrap;"><span class="nodeLabel"><b>torch_spyre._C.copy_tensor(src, dst, non_blocking=False)</b><br />SpyreStream.copyAsync → flex runtime DMA<br />(direction auto-detected from src.is_cpu/.is_privateuseone)</span></div></foreignObject></g></g><g class="node default upstream flowchart-label" id="flowchart-OC-0" data-node="true" data-id="OC" transform="translate(660.458984375, 41.75)"><rect class="basic label-container" style="" rx="0" ry="0" x="-81.50390625" y="-16.75" width="163.0078125" height="33.5"/><g class="label" style="" transform="translate(-74.00390625, -9.25)"><rect/><foreignObject width="148.0078125" height="18.5"><div xmlns="http://www.w3.org/1999/xhtml" style="display: inline-block; white-space: nowrap;"><span class="nodeLabel">OffloadingConnector</span></div></foreignObject></g></g><g class="node default upstream flowchart-label" id="flowchart-OCW-1" data-node="true" data-id="OCW" transform="translate(984.349609375, 153)"><rect class="basic label-container" style="" rx="0" ry="0" x="-106.86328125" y="-16.75" width="213.7265625" height="33.5"/><g class="label" style="" transform="translate(-99.36328125, -9.25)"><rect/><foreignObject width="198.7265625" height="18.5"><div xmlns="http://www.w3.org/1999/xhtml" style="display: inline-block; white-space: nowrap;"><span class="nodeLabel">OffloadingConnectorWorker</span></div></foreignObject></g></g><g class="node default upstream flowchart-label" id="flowchart-Factory-2" data-node="true" data-id="Factory" transform="translate(393.830078125, 153)"><rect class="basic label-container" style="" rx="0" ry="0" x="-138.53125" y="-26" width="277.0625" height="52"/><g class="label" style="" transform="translate(-131.03125, -18.5)"><rect/><foreignObject width="262.0625" height="37"><div xmlns="http://www.w3.org/1999/xhtml" style="display: inline-block; white-space: nowrap;"><span class="nodeLabel">OffloadingSpecFactory<br />.create_spec("SpyreOffloadingSpec")</span></div></foreignObject></g></g></g></g></g></svg>